<?xml version="1.0" encoding="utf-8"?>
<!-- Generator: Adobe Illustrator 25.0.0, SVG Export Plug-In . SVG Version: 6.00 Build 0)  -->
<svg version="1.1" id="图层_1" xmlns:vectornator="http://vectornator.io"
	 xmlns="http://www.w3.org/2000/svg" xmlns:xlink="http://www.w3.org/1999/xlink" x="0px" y="0px" viewBox="0 0 318.6 114.7"
	 style="enable-background:new 0 0 318.6 114.7;" xml:space="preserve">
<style type="text/css">
	.st0{fill:#FF53AB;}
	.st1{fill:#FF72BA;fill-opacity:0.6749;}
	.st2{fill:#5B5B5B;}
</style>
<path class="st0" d="M41.3,23c0.6,3,1,5.2,1.5,6.7c0.4,1.5,1.1,2.5,2.1,3.1c1,0.6,2.5,1,4.6,1.3c1.5-0.3,3.1-0.5,4.7-0.6
	c1.6-0.1,3.2-0.2,4.9-0.2c5.8,0,10.8,1,15.1,3c4.3,2,7.6,4.7,10,8.3c2.4,3.5,3.5,7.7,3.5,12.4c0,3.1-0.8,6.1-2.3,9
	c-1.5,2.9-3.6,5.5-6.2,7.9c-2.6,2.3-5.6,4.2-8.8,5.6c-3.3,1.4-6.6,2.1-10.1,2.1c-1,0-1.9-0.1-2.7-0.4c-0.8-0.3-1.1-0.5-1.1-0.6
	c0-0.7,0.4-1.3,1.2-1.9c0.8-0.6,1.9-1,3.3-1.4c1.4-0.4,3-0.5,4.9-0.5c3.1,0,5.5,1,7.3,2.9c1.8,1.9,2.7,4.6,2.7,7.9
	c0,1.6-0.6,3.2-1.7,4.9c-1.1,1.7-2.6,3.2-4.6,4.6c-1.2,0.8-2.1,1.7-2.7,2.7c-0.6,1-0.9,2.1-0.9,3.3c0,1.7,0.6,3.2,1.9,4.3
	c1.2,1.1,2.8,1.7,4.5,1.7c1.4,0,2.8-0.5,4.1-1.4c3.7-2.4,6.6-5.4,8.7-9.1c2.1-3.6,3.2-7.3,3.2-11.1c0-4.7-1-8.7-2.9-12.3
	c-2-3.5-4.7-6.3-8.2-8.2c-3.5-2-7.5-3-12.2-3c-4.2,0-7.9,0.7-11.1,2.1c-3.2,1.4-5.8,3.3-7.6,5.8c-1.8,2.5-2.7,5.3-2.7,8.5
	c0,4.1,1.5,7.4,4.6,10c3.1,2.5,7,3.8,11.9,3.8c5.2,0,10.2-1,15-3c4.8-2,9.1-4.8,12.9-8.3c3.8-3.5,6.8-7.5,9-11.9
	c2.2-4.4,3.3-9.1,3.3-13.9c0-5.4-1-10.4-2.9-14.8c-2-4.5-4.7-8.3-8.4-11.5c-3.6-3.2-8-5.7-13-7.4c-5.1-1.7-10.7-2.6-17-2.6
	c-3.2,0-6.3,0.2-9.2,0.6C46.8,21.7,44,22.2,41.3,23z M55.9,79.9c-0.9,0.1-1.8,0.2-2.8,0.3c-0.9,0.1-1.8,0.1-2.7,0.1
	c-5.5,0-10.3-0.8-14.4-2.4c-4.1-1.6-7.2-3.9-9.4-6.9c-2.2-3-3.3-6.5-3.3-10.5c0-0.9,0-1.9,0.1-2.8c0.1-0.9,0.2-1.8,0.4-2.7
	c-0.8-1.9-2.3-3.1-4.6-3.6C17,51,14.6,50.5,12,50c-0.4,1.6-0.8,3.3-1,5.1c-0.2,1.7-0.4,3.5-0.4,5.3c0,6.4,1.7,12.1,5,16.9
	c3.3,4.9,8,8.7,13.8,11.4c5.9,2.7,12.7,4.1,20.4,4.1c1.5,0,3.1-0.1,4.7-0.2c1.6-0.1,3-0.3,4.4-0.3L55.9,79.9z"/>
<path class="st1" d="M33.3,63.4c1.2,0,1.9-0.6,2.1-1.9c0.5-3.3,1-6,1.6-8s1.5-3.6,2.6-4.8c1.1-1.1,2.7-2,4.7-2.6
	c2-0.6,4.7-1.1,7.9-1.5c1.3-0.2,2-0.9,2-2.1c0-1.2-0.7-1.9-2-2.1c-3.2-0.4-5.8-0.9-7.7-1.4c-2-0.6-3.5-1.4-4.6-2.6
	c-1.1-1.1-2-2.7-2.7-4.8c-0.7-2.1-1.3-4.8-1.9-8.1c-0.2-1.3-0.9-1.9-2.1-1.9c-1.2,0-1.9,0.6-2.1,1.9c-0.4,3.3-0.9,6-1.5,8
	c-0.6,2-1.5,3.6-2.6,4.8c-1.2,1.2-2.7,2-4.8,2.6c-2,0.6-4.7,1.1-8,1.5c-1.3,0.2-2,0.9-2,2.1c0,1.2,0.7,1.9,2,2.1
	c3.2,0.6,5.7,1.1,7.7,1.7c2,0.6,3.5,1.4,4.6,2.5c1.1,1.1,2,2.6,2.7,4.6s1.3,4.7,1.9,8.1C31.5,62.8,32.2,63.4,33.3,63.4z M13.9,35.4
	c0.8,0,1.3-0.4,1.5-1.3c0.3-2.2,0.6-3.7,0.9-4.7c0.3-0.9,1-1.6,2-2c1-0.4,2.7-0.8,5-1.2c0.8-0.2,1.3-0.7,1.3-1.5
	c0-0.9-0.4-1.4-1.3-1.5c-2.3-0.3-3.9-0.7-4.9-1c-1-0.3-1.7-1-2-2c-0.3-1-0.6-2.6-0.9-4.8c-0.1-0.9-0.6-1.4-1.5-1.4
	c-0.8,0-1.3,0.5-1.5,1.4c-0.3,2.1-0.6,3.7-0.9,4.6s-1,1.6-2,1.9c-1,0.4-2.7,0.8-5,1.2c-0.8,0.2-1.3,0.7-1.3,1.5
	c0,0.8,0.5,1.3,1.4,1.5C7,26.7,8.6,27,9.6,27.4c1,0.4,1.6,1,2,2s0.6,2.5,0.9,4.7C12.6,35,13.1,35.4,13.9,35.4z M26.4,16.3
	c0.5,0,0.8-0.3,0.9-0.8c0.3-1.3,0.5-2.3,0.7-2.9c0.2-0.6,0.6-1,1.2-1.2c0.6-0.2,1.6-0.5,2.9-0.8c0.5-0.1,0.8-0.4,0.8-0.9
	c0-0.5-0.3-0.8-0.8-0.9c-1.3-0.3-2.3-0.6-2.9-0.8c-0.6-0.2-1-0.6-1.2-1.2c-0.2-0.6-0.5-1.5-0.7-2.8c-0.1-0.6-0.4-0.8-0.9-0.8
	c-0.5,0-0.8,0.3-0.9,0.9c-0.2,1.3-0.4,2.2-0.7,2.8c-0.2,0.6-0.6,1-1.2,1.2c-0.6,0.2-1.6,0.5-3,0.8c-0.5,0.1-0.8,0.4-0.8,0.9
	c0,0.5,0.3,0.8,0.9,0.9c1.4,0.3,2.3,0.6,2.9,0.8c0.6,0.2,1,0.6,1.2,1.2c0.2,0.6,0.4,1.5,0.7,2.9C25.6,16,25.9,16.3,26.4,16.3z"/>
<g>
	<path class="st2" d="M131.4,61.3l-3.6,9.9c-0.2,0.5-0.2,0.9-0.1,1.1c0.1,0.2,0.6,0.4,1.4,0.4l3.1,0.2v1.1c-0.3,0-0.9-0.1-1.9-0.1
		c-1,0-2.2,0-3.9,0c-1.6,0-2.9,0-3.9,0c-1,0-1.6,0-1.9,0.1V73l3-0.2c1-0.1,1.8-0.7,2.2-1.7l10.8-28h1.9L149,70.7
		c0.2,0.5,0.4,0.9,0.6,1.1c0.2,0.2,0.5,0.4,1,0.5l2.6,0.8v1.1c-0.6,0-1.4-0.1-2.4-0.1c-1,0-2.1,0-3.3,0h-3.3c-2.1,0-3.8,0-5.2,0.1
		v-1.1l3.1-0.5c0.4-0.1,0.8-0.1,1-0.2c0.2-0.1,0.4-0.2,0.5-0.3s0.1-0.3,0.1-0.5c0-0.2-0.1-0.5-0.2-0.8l-3.5-9.4H131.4z M139.2,59.6
		l-3.4-10.1l-3.7,10.1H139.2z"/>
	<path class="st2" d="M154.2,74.2v-0.8L156,73c0.6-0.2,1-0.4,1.2-0.7c0.2-0.3,0.3-0.9,0.3-1.7v-9c0-0.6-0.1-1.1-0.4-1.4
		s-0.8-0.5-1.8-0.7l-1-0.2l0-0.8c1.2-0.3,2.4-0.9,3.6-1.6c1.2-0.7,2.1-1.6,2.9-2.8h0.8l0.2,5.5c0.3-0.6,0.5-1.1,0.8-1.5
		c0.3-0.5,0.7-1,1.3-1.5c0.5-0.6,1-0.9,1.5-1.1c0.5-0.2,0.9-0.3,1.3-0.3c0.8,0,1.4,0.2,2,0.7c0.5,0.5,0.8,1.1,0.8,2
		c0,0.8-0.2,1.5-0.6,2c-0.4,0.5-0.9,0.7-1.7,0.7c-0.4,0-0.7-0.1-1-0.3c-0.3-0.2-0.5-0.4-0.8-0.6c-0.2-0.2-0.5-0.4-0.7-0.6
		c-0.2-0.2-0.4-0.3-0.6-0.3c-0.3,0-0.5,0.1-0.8,0.4c-0.3,0.2-0.5,0.5-0.7,0.9c-0.2,0.3-0.4,0.7-0.5,1.2c-0.1,0.4-0.2,0.8-0.3,1.2
		c0,0.3-0.1,0.6-0.1,0.8s0,0.5,0,0.7v6.6c0,0.8,0.1,1.3,0.4,1.5c0.3,0.2,0.8,0.5,1.7,0.7l2.4,0.5v0.8c-0.8-0.1-1.6-0.1-2.5-0.1
		c-0.9,0-1.9,0-2.9,0H160c-1,0-2.1,0-3.1,0C156,74.1,155,74.1,154.2,74.2z"/>
	<path class="st2" d="M178.4,51.3h0.8c0,0.8,0,1.7,0,2.5c0,0.8,0,1.7,0,2.5l6.1-0.1v2l-6.1,0.2v8.9c0,1.6,0.1,2.8,0.4,3.5
		c0.3,0.8,1,1.2,2.2,1.1c0.5,0,1-0.1,1.6-0.2c0.6-0.1,1.2-0.5,2-1l0.4,0.7c-0.5,0.8-1.3,1.6-2.3,2.3c-1,0.7-2.3,1.1-4,1.1
		c-1.7,0-2.9-0.4-3.6-1.3c-0.7-0.9-1.1-2.4-1.1-4.6V58.5c-0.4,0-0.9,0-1.3,0c-0.4,0-0.8,0-1.3,0c-0.4,0-0.7-0.2-0.7-0.5
		c0-0.3,0.2-0.6,0.6-0.8c0.7-0.3,1.3-0.6,1.8-0.9c0.5-0.3,1-0.6,1.3-1s0.8-0.9,1.5-1.6C177.6,53.1,178.1,52.3,178.4,51.3z"/>
	<path class="st2" d="M200.2,43.6c0.2-0.8,0.4-1.3,0.7-1.2c0.2,0,0.5,0.3,0.8,1c0.2,0.3,0.3,0.6,0.5,0.7c0.1,0.2,0.3,0.3,0.4,0.4
		c0.2,0.1,0.4,0.1,0.6,0.1c0.2,0,0.5,0,0.8,0h18.2c0.6,0,1,0,1.4,0c0.3,0,0.6-0.1,0.8-0.2c0.2-0.1,0.4-0.2,0.5-0.4s0.2-0.4,0.4-0.7
		c0.3-0.6,0.5-0.9,0.8-0.9c0.4,0,0.6,0.3,0.6,0.9l-0.1,8c0,0.3,0,0.4-0.1,0.6c-0.1,0.1-0.2,0.2-0.3,0.1c-0.1,0-0.3-0.2-0.4-0.5
		c-0.2-0.3-0.3-0.7-0.4-1.3c-0.2-0.6-0.3-1.2-0.5-1.6c-0.2-0.5-0.4-0.8-0.7-1.1c-0.3-0.3-0.7-0.5-1.2-0.7c-0.5-0.1-1.2-0.2-2-0.2
		h-5.2V70c0,0.8,0.1,1.4,0.3,1.7c0.2,0.3,0.6,0.5,1.3,0.7l3.7,0.8v1c-0.8-0.1-2-0.1-3.5-0.1c-1.6,0-3.3,0-5.1,0c-1.8,0-3.4,0-4.8,0
		c-1.3,0-2.2,0.1-2.6,0.1v-1l3.4-0.7c0.9-0.2,1.5-0.4,1.8-0.8s0.4-1,0.4-1.7V46.6h-5.2c-0.5,0-1,0-1.4,0.1s-0.8,0.3-1.2,0.6
		s-0.8,0.7-1.2,1.3c-0.5,0.5-1,1.3-1.6,2.1c-0.4,0.6-0.7,1-0.9,1.1c-0.2,0.2-0.4,0.2-0.4,0c-0.1-0.1-0.1-0.4,0-0.8
		c0-0.4,0.1-0.8,0.2-1.2L200.2,43.6z"/>
	<path class="st2" d="M228.3,74.2v-0.8l1.8-0.4c0.6-0.2,1-0.4,1.2-0.7c0.2-0.3,0.3-0.9,0.3-1.7v-9c0-0.6-0.1-1.1-0.4-1.4
		s-0.8-0.5-1.8-0.7l-1-0.2l0-0.8c1.2-0.3,2.4-0.9,3.6-1.6c1.2-0.7,2.1-1.6,2.9-2.8h0.8l0.2,5.5c0.3-0.6,0.5-1.1,0.8-1.5
		c0.3-0.5,0.7-1,1.3-1.5c0.5-0.6,1-0.9,1.5-1.1c0.5-0.2,0.9-0.3,1.3-0.3c0.8,0,1.4,0.2,2,0.7c0.5,0.5,0.8,1.1,0.8,2
		c0,0.8-0.2,1.5-0.6,2c-0.4,0.5-0.9,0.7-1.7,0.7c-0.4,0-0.7-0.1-1-0.3c-0.3-0.2-0.5-0.4-0.8-0.6c-0.2-0.2-0.5-0.4-0.7-0.6
		c-0.2-0.2-0.4-0.3-0.6-0.3c-0.3,0-0.5,0.1-0.8,0.4c-0.3,0.2-0.5,0.5-0.7,0.9c-0.2,0.3-0.4,0.7-0.5,1.2c-0.1,0.4-0.2,0.8-0.3,1.2
		c0,0.3-0.1,0.6-0.1,0.8s0,0.5,0,0.7v6.6c0,0.8,0.1,1.3,0.4,1.5c0.3,0.2,0.8,0.5,1.7,0.7l2.4,0.5v0.8c-0.8-0.1-1.6-0.1-2.5-0.1
		c-0.9,0-1.9,0-2.9,0h-0.9c-1,0-2.1,0-3.1,0C230.2,74.1,229.2,74.1,228.3,74.2z"/>
	<path class="st2" d="M253.7,74.6c-1.3,0-2.4-0.2-3.3-0.7c-0.9-0.5-1.7-1.1-2.3-1.9s-1.1-1.7-1.4-2.8s-0.4-2.2-0.4-3.4
		c0-1.7,0.3-3.1,0.8-4.4c0.5-1.3,1.2-2.3,2.1-3.2c0.9-0.9,1.9-1.5,3-2c1.1-0.4,2.3-0.7,3.5-0.7c0.8,0,1.4,0.1,2,0.2
		c0.6,0.1,1.1,0.3,1.6,0.4c0.5,0.2,1,0.3,1.4,0.6l2.9-1.6l0.4,0.1c0,2.4,0,4.9,0,7.3c0,2.4,0,4.8,0,7.3c0,1.3,0.5,1.8,1.6,1.8
		c0.2,0,0.5,0,0.6-0.1c0.2-0.1,0.3-0.1,0.4-0.2c0.1-0.1,0.3-0.2,0.4-0.3l0.3,0.5c-0.3,0.6-0.6,1.1-0.9,1.6c-0.3,0.4-0.8,0.8-1.3,1.1
		s-1.1,0.5-1.9,0.5c-1.2,0-2.1-0.4-2.6-1.1c-0.5-0.8-0.8-1.7-0.8-2.9v-1.2c-0.2,0.7-0.4,1.3-0.8,2c-0.3,0.6-0.7,1.2-1.2,1.7
		c-0.5,0.5-1.1,0.9-1.7,1.2C255.4,74.5,254.6,74.6,253.7,74.6z M259.8,64c0-0.8-0.1-1.7-0.2-2.4c-0.1-0.8-0.3-1.5-0.6-2.1
		c-0.3-0.6-0.7-1.1-1.3-1.5c-0.5-0.4-1.2-0.6-2.1-0.6c-0.5,0-1.1,0.1-1.7,0.4c-0.6,0.3-1.1,0.7-1.6,1.2c-0.5,0.6-0.9,1.3-1.2,2.3
		c-0.3,0.9-0.5,2.1-0.5,3.4c0,1,0.1,2,0.3,2.8c0.2,0.9,0.5,1.7,0.9,2.3c0.4,0.7,0.9,1.2,1.5,1.6c0.6,0.4,1.2,0.6,2,0.6
		c0.7,0,1.3-0.2,1.9-0.6c0.6-0.4,1-0.9,1.4-1.6s0.7-1.5,0.9-2.4c0.2-0.9,0.3-1.9,0.3-2.9V64z"/>
	<path class="st2" d="M283.9,48.4c0-0.6,0-1.1-0.1-1.5c-0.1-0.4-0.2-0.7-0.5-0.9s-0.6-0.4-1.1-0.6c-0.5-0.2-1.2-0.4-2-0.6v-0.8
		c0.5,0,1.1-0.1,1.7-0.1c0.6-0.1,1.3-0.1,1.9-0.2c0.6-0.1,1.2-0.2,1.8-0.3c0.6-0.1,1.1-0.2,1.5-0.4h1.2v27.5c0,0.6,0,1,0.1,1.3
		c0,0.3,0.2,0.5,0.4,0.7c0.2,0.1,0.5,0.2,1,0.3s1,0.1,1.8,0.1v1c-0.6,0.1-1.2,0.2-2,0.4c-0.7,0.1-1.4,0.2-2.1,0.3s-1.4,0.2-2,0.3
		s-1.2,0.1-1.6,0.2v-2.7c-1.2,0.7-2.3,1.3-3.3,1.8c-1,0.5-2.1,0.7-3.4,0.7c-1.1,0-2.1-0.2-3-0.5c-0.9-0.3-1.7-1-2.5-1.9
		c-1.5-1.8-2.3-4-2.3-6.5c0-1.7,0.3-3.1,0.8-4.4c0.5-1.3,1.3-2.4,2.2-3.3c0.9-0.9,1.9-1.6,3.1-2.1c1.1-0.5,2.3-0.7,3.5-0.7
		c1.1,0,2,0.1,2.8,0.3c0.8,0.2,1.5,0.5,2,0.9V48.4z M283.9,70.9v-8.3c0-0.7,0-1.3-0.1-2c-0.1-0.7-0.3-1.3-0.6-1.8
		c-0.3-0.5-0.7-1-1.3-1.3c-0.6-0.3-1.4-0.5-2.4-0.5c-0.8,0-1.4,0.2-2.1,0.6s-1.2,1-1.6,1.7c-0.5,0.7-0.8,1.6-1,2.5
		c-0.2,1-0.4,2-0.4,3.1c0,2.2,0.5,3.9,1.4,5.2c0.9,1.3,2.3,2,3.9,2c1,0,1.8-0.1,2.5-0.4C282.9,71.6,283.5,71.3,283.9,70.9z"/>
	<path class="st2" d="M310.8,62.7h-12.3c-0.1,0.3-0.1,0.5-0.1,0.7c0,0.2,0,0.4,0,0.7c0,1.1,0.2,2.1,0.5,3c0.3,0.9,0.8,1.7,1.3,2.3
		s1.2,1.2,2,1.5c0.8,0.4,1.7,0.5,2.7,0.5c1.1,0,2.1-0.2,3-0.5c0.9-0.4,1.9-1,2.9-2l0.2,0.9c-0.4,0.7-0.9,1.3-1.5,1.9
		c-0.5,0.6-1.2,1.1-1.9,1.6c-0.7,0.5-1.5,0.8-2.4,1.1c-0.9,0.3-1.9,0.4-3,0.4c-1.3,0-2.4-0.2-3.4-0.7c-1-0.5-1.9-1.1-2.7-2
		c-0.8-0.9-1.3-1.9-1.8-3.1s-0.6-2.5-0.6-3.9c0-1.4,0.2-2.8,0.7-3.9c0.5-1.2,1.1-2.2,1.9-3.1c0.8-0.9,1.8-1.6,3-2
		c1.2-0.5,2.4-0.7,3.9-0.7c1.2,0,2.3,0.2,3.2,0.6c0.9,0.4,1.7,0.9,2.3,1.6c0.6,0.7,1.1,1.5,1.4,2.4S310.8,61.6,310.8,62.7z
		 M298.8,61.2h5.5c0.6,0,1.1-0.1,1.4-0.2c0.3-0.2,0.4-0.5,0.4-1.2c-0.1-0.9-0.4-1.6-0.8-2.3c-0.4-0.6-1.1-1-2.1-1
		c-1.1,0-2.1,0.4-2.8,1.2C299.6,58.6,299.1,59.7,298.8,61.2z"/>
</g>
</svg>
